<?xml version="1.0" encoding="UTF-8" standalone="no"?>
<svg
   xmlns:dc="http://purl.org/dc/elements/1.1/"
   xmlns:cc="http://creativecommons.org/ns#"
   xmlns:rdf="http://www.w3.org/1999/02/22-rdf-syntax-ns#"
   xmlns:svg="http://www.w3.org/2000/svg"
   xmlns="http://www.w3.org/2000/svg"
   style="enable-background:new"
   width="392.77222mm"
   height="100mm"
   viewBox="0 0 392.77223 99.999999"
   version="1.1"
   id="svg8">
  <defs
     id="defs2">
    <filter
       id="filter3764"
       style="color-interpolation-filters:sRGB">
      <feBlend
         id="feBlend3766"
         in2="BackgroundImage"
         mode="overlay" />
    </filter>
  </defs>
  <metadata
     id="metadata5">
    <rdf:RDF>
      <cc:Work
         rdf:about="">
        <dc:format>image/svg+xml</dc:format>
        <dc:type
           rdf:resource="http://purl.org/dc/dcmitype/StillImage" />
        <dc:title></dc:title>
      </cc:Work>
    </rdf:RDF>
  </metadata>
  <g
     transform="translate(-10.63961,60.574957)"
     style="display:inline;filter:url(#filter3764)"
     id="layer1">
    <path
       id="path5342"
       transform="matrix(0.26458333,0,0,0.26458333,10.63961,-60.574957)"
       d="m 103,114.19336 -9.550781,15.92383 -18.6875,31.16015 L 56.070312,192.44336 37.380859,223.60742 18.689453,254.77344 0,285.93555 h 37.767578 37.765625 l 16.388672,-28.63086 16.386715,-28.63086 h 34.40821 34.4082 34.4082 l 3.20118,28.63086 3.20312,28.63086 h 36.44727 36.44921 l -4.875,-35.0586 -4.87304,-35.06054 -4.875,-35.0625 -4.87305,-35.05664 -4.38086,-31.50391 h -68.08594 l 3.43164,30.5957 3.76758,33.5918 h -34.56445 -34.56641 l 14.45899,-25.19531 14.45703,-25.19336 7.91797,-13.79883 z"
       style="font-style:italic;font-variant:normal;font-weight:bold;font-stretch:normal;font-size:21.8722229px;line-height:1.25;font-family:Verdana;-inkscape-font-specification:'Verdana, Bold Italic';font-variant-ligatures:normal;font-variant-caps:normal;font-variant-numeric:normal;font-feature-settings:normal;text-align:start;letter-spacing:0px;word-spacing:0px;writing-mode:lr-tb;text-anchor:start;fill:#000000;fill-opacity:1;stroke:none;stroke-width:4.6665554" />
    <path
       id="path4949"
       transform="matrix(0.26458333,0,0,0.26458333,10.63961,-60.574957)"
       d="m 103,114.19336 h 70.77344 l 6.53711,-11.39258 14.45703,-25.195311 3.76758,33.591801 0.33593,2.99609 h 68.08594 l -0.49414,-3.55469 -4.87305,-35.058592 -4.87304,-35.05664 -4.875,-35.0605474 h -27.87696 -27.8789 -27.87696 L 149.51953,36.625 130.82812,67.789062 112.13867,98.955078 Z"
       style="font-style:italic;font-variant:normal;font-weight:bold;font-stretch:normal;font-size:21.8722229px;line-height:1.25;font-family:Verdana;-inkscape-font-specification:'Verdana, Bold Italic';font-variant-ligatures:normal;font-variant-caps:normal;font-variant-numeric:normal;font-feature-settings:normal;text-align:start;letter-spacing:0px;word-spacing:0px;writing-mode:lr-tb;text-anchor:start;fill:#000000;fill-opacity:1;stroke:none;stroke-width:4.6665554" />
    <path
       id="path5347"
       transform="matrix(0.26458333,0,0,0.26458333,10.63961,-60.574957)"
       d="m 595.18555,95.03125 h -74.96094 c -2.22129,4.805463 -5.6046,8.89124 -10.32422,12.14844 -4.84797,3.32432 -10.765,5.73174 -17.75195,7.22265 -3.97688,0.84861 -8.42781,1.29029 -13.09766,1.54493 v 49.19531 c 10.54189,0.90468 18.72177,3.04137 24.44531,6.45703 7.7857,4.52073 11.67774,11.92936 11.67774,22.22656 0,1.29809 -0.10031,2.54017 -0.20899,3.77735 h 73.66602 c 0.10271,-1.8663 0.19336,-3.73905 0.19336,-5.66016 0,-6.96614 -0.84449,-13.20761 -2.53516,-18.72461 -1.96656,-6.41732 -5.07798,-11.85588 -9.33203,-16.3125 -4.22549,-4.4981 -9.54142,-8.42197 -15.94922,-11.77344 -5.39892,-2.82379 -11.57334,-5.2402 -18.52148,-7.25 l 0.37695,-1.50781 c 8.78332,-2.58333 16.53019,-5.73154 23.24024,-9.44336 7.96784,-4.4076 14.47507,-9.61056 19.51953,-15.60937 4.0965,-4.86118 7.24779,-10.31325 9.5625,-16.29102 z"
       style="font-style:italic;font-variant:normal;font-weight:bold;font-stretch:normal;font-size:21.8722229px;line-height:1.25;font-family:Verdana;-inkscape-font-specification:'Verdana, Bold Italic';font-variant-ligatures:normal;font-variant-caps:normal;font-variant-numeric:normal;font-feature-settings:normal;text-align:start;letter-spacing:0px;word-spacing:0px;writing-mode:lr-tb;text-anchor:start;fill:#000000;fill-opacity:1;stroke:none;stroke-width:4.6665554" />
    <path
       id="path4951"
       transform="matrix(0.26458333,0,0,0.26458333,10.63961,-60.574957)"
       d="m 393.30273,5.4628906 -8.09961,35.0585934 -8.0996,35.060547 -8.09961,35.062499 -8.09961,35.05664 -8.09961,35.0586 -8.09961,35.05859 -8.09961,35.05664 -8.09961,35.06055 h 30.375 30.375 30.37109 H 450 c 12.69076,0 24.5533,-0.68249 35.58789,-2.04883 12.70993,-1.57378 24.3213,-4.0549 34.83399,-7.44141 12.15012,-3.91398 22.83371,-9.03766 32.04882,-15.37304 7.93823,-5.42926 14.5759,-11.55229 19.91407,-18.36915 5.64381,-7.20716 9.83478,-15.191 12.57226,-23.94921 2.06381,-6.60291 3.26192,-13.6659 3.67383,-21.15039 h -73.66602 c -1.00571,11.44929 -6.61865,20.31569 -16.93164,26.54882 -6.38188,3.85718 -14.27227,6.63679 -23.66992,8.33985 -7.42979,1.34643 -15.80043,2.01953 -25.11523,2.01953 h -36.54297 l 8.09961,-34.94141 8.09961,-34.9414 h 18.92968 18.93164 c 4.42366,0 8.48699,0.18772 12.28516,0.51367 v -49.19531 c -2.00192,0.10915 -3.94104,0.27343 -6.07031,0.27343 h -32.96289 l 6.875,-29.667966 6.875,-29.666015 h 32.58789 c 11.55296,0 20.59311,1.883116 27.12305,5.65039 6.52994,3.641694 9.79492,9.606527 9.79492,17.894532 0,5.496504 -1.07386,10.327028 -3.04883,14.599609 h 74.96094 c 0.45917,-1.185834 0.93711,-2.36007 1.32617,-3.589844 2.15875,-6.823585 3.23828,-14.3236 3.23828,-22.5 0,-10.178499 -2.28898,-19.19654 -6.86523,-27.054687 C 588.4276,34.233073 581.80029,27.679055 573.00195,22.226562 566.05339,17.871476 557.89366,14.365054 548.52344,11.707031 540.63239,9.4686023 531.88388,7.8317442 522.27539,6.796875 514.01362,5.9070529 505.1155,5.4628906 495.58398,5.4628906 h -34.09375 -34.09375 z"
       style="font-style:italic;font-variant:normal;font-weight:bold;font-stretch:normal;font-size:21.8722229px;line-height:1.25;font-family:Verdana;-inkscape-font-specification:'Verdana, Bold Italic';font-variant-ligatures:normal;font-variant-caps:normal;font-variant-numeric:normal;font-feature-settings:normal;text-align:start;letter-spacing:0px;word-spacing:0px;writing-mode:lr-tb;text-anchor:start;fill:#000000;fill-opacity:1;stroke:none;stroke-width:4.6665554" />
    <path
       id="path4953"
       d="m 215.47325,15.078921 c 0,0 -3.58313,0 -8.69168,0 -2.59396,0 -5.58121,0 -8.69236,0 -2.8622,0 -5.82926,0 -8.69143,0 -3.11125,0 -6.09857,0 -8.69252,0 -5.10799,0 -8.69063,0 -8.69063,0 0,0 0.76003,-3.289299 1.52005,-6.5785981 0.76003,-3.289299 1.52006,-6.578598 1.52006,-6.578598 0,0 3.02765,0 6.0553,0 3.02765,0 6.0553,0 6.0553,0 0,0 0.91222,-3.9488432 2.21279,-9.5787888 0.66039,-2.8587061 1.4209,-6.1508471 2.21296,-9.5795391 0.72868,-3.154323 1.48406,-6.424217 2.21273,-9.578516 0.79194,-3.428178 1.55234,-6.719817 2.21265,-9.578157 1.30062,-5.630158 2.21288,-9.579188 2.21288,-9.579188 0,0 -3.02765,0 -6.05531,0 -3.02765,0 -6.0553,0 -6.0553,0 0,0 0.76003,-3.289299 1.52006,-6.578598 0.76003,-3.289298 1.52006,-6.578597 1.52006,-6.578597 0,0 3.58313,0 8.69168,0 2.59395,0 5.5812,0 8.69236,0 2.86219,0 5.82925,0 8.69143,0 3.11125,0 6.09856,0 8.69251,0 5.10799,0 8.69063,0 8.69063,0 0,0 -0.76002,3.289299 -1.52005,6.578597 -0.76003,3.289299 -1.52005,6.578598 -1.52005,6.578598 0,0 -3.02765,0 -6.05531,0 -3.02765,0 -6.0553,0 -6.0553,0 0,0 -0.91222,3.948843 -2.21279,9.578789 -0.66039,2.858706 -1.4209,6.150847 -2.21296,9.579539 -0.72868,3.154323 -1.48405,6.424217 -2.21273,9.578516 -0.79194,3.428178 -1.55234,6.719817 -2.21264,9.5781573 -1.30062,5.6301579 -2.21288,9.5791876 -2.21288,9.5791876 0,0 3.02765,0 6.0553,0 3.02765,0 6.0553,0 6.0553,0 0,0 -0.76003,3.289299 -1.52006,6.578598 -0.76002,3.2892991 -1.52005,6.5785981 -1.52005,6.5785981"
       style="font-style:italic;font-variant:normal;font-weight:bold;font-stretch:normal;font-size:21.8722229px;line-height:1.25;font-family:Verdana;-inkscape-font-specification:'Verdana, Bold Italic';font-variant-ligatures:normal;font-variant-caps:normal;font-variant-numeric:normal;font-feature-settings:normal;text-align:start;letter-spacing:0px;word-spacing:0px;writing-mode:lr-tb;text-anchor:start;fill:#000000;fill-opacity:1;stroke:none;stroke-width:1.23469281" />
    <path
       id="path4955"
       d="m 309.01892,15.078921 c 0,0 -4.78443,0 -9.56886,0 -4.78444,0 -9.56887,0 -9.56887,0 0,0 0.92455,-4.002261 2.24269,-9.7083663 0.66931,-2.8973771 1.44011,-6.23405328 2.24287,-9.7091267 0.73853,-3.1969934 1.50411,-6.511121 2.24263,-9.70809 0.80264,-3.474553 1.57332,-6.81072 2.24254,-9.707726 1.3182,-5.706321 2.24279,-9.708771 2.24279,-9.708771 0,0 -2.17102,3.312261 -5.09601,7.774837 -1.5562,2.374256 -3.32583,5.074125 -5.09547,7.774017 -1.7698,2.700143 -3.53962,5.400309 -5.09599,7.774817 -2.9251,4.4627384 -5.09622,7.7751586 -5.09622,7.7751586 0,0 -3.30176,0 -6.60352,0 -3.30176,0 -6.60352,0 -6.60352,0 0,0 -0.70067,-3.5298935 -1.64467,-8.2856836 -0.50225,-2.530258 -1.07338,-5.407522 -1.64451,-8.28481 -0.57118,-2.877557 -1.14237,-5.755138 -1.64467,-8.285663 -0.94404,-4.755964 -1.64474,-8.286027 -1.64474,-8.286027 0,0 -0.78324,3.397391 -1.94376,8.43127 -0.57233,2.482556 -1.23643,5.363132 -1.94359,8.430513 -0.62543,2.712871 -1.28454,5.571863 -1.94366,8.430856 -0.65913,2.8590215 -1.31825,5.7180444 -1.94369,8.4309446 -0.70724,3.0677499 -1.37141,5.9486513 -1.94379,8.4314138 -1.16042,5.0334206 -1.94357,8.4304366 -1.94357,8.4304366 0,0 -4.53525,0 -9.0705,0 -4.53524,0 -9.07049,0 -9.07049,0 0,0 0.83787,-3.626696 2.14315,-9.276585 0.62162,-2.6907043 1.34926,-5.84027842 2.1429,-9.2755224 0.67482,-2.9209544 1.39736,-6.0484463 2.14301,-9.2760006 0.70069,-3.032913 1.42179,-6.154183 2.14289,-9.275461 0.72111,-3.121316 1.44222,-6.24264 2.14292,-9.275616 0.74572,-3.227845 1.46833,-6.355627 2.14321,-9.276842 0.79372,-3.435619 1.52143,-6.585517 2.14311,-9.276442 1.30522,-5.649618 2.14304,-9.276111 2.14304,-9.276111 0,0 3.29107,0 7.32616,0 2.35739,0 4.96873,0 7.32612,0 4.03512,0 7.32622,0 7.32622,0 0,0 0.86522,3.965158 2.03093,9.307376 0.62019,2.842258 1.32545,6.074312 2.03071,9.306393 0.70532,3.232383 1.41066,6.464793 2.03092,9.307352 1.16575,5.342412 2.03101,9.307761 2.03101,9.307761 0,0 2.0792,-3.069496 5.04357,-7.445738 1.5052,-2.222116 3.23863,-4.781148 5.04396,-7.446322 1.66086,-2.451903 3.38257,-4.993641 5.04342,-7.445526 1.80538,-2.665258 3.53885,-5.224344 5.04405,-7.446456 2.96404,-4.375764 5.04296,-7.44484 5.04296,-7.44484 0,0 3.38062,0 7.52551,0 2.42154,0 5.10393,0 7.52547,0 4.14492,0 7.52557,0 7.52557,0 0,0 -0.83787,3.626696 -2.14315,9.276585 -0.62162,2.690704 -1.34926,5.840278 -2.1429,9.275522 -0.67482,2.920955 -1.39736,6.048447 -2.14301,9.276001 -0.70069,3.032913 -1.42179,6.154183 -2.14289,9.275461 -0.72111,3.121316 -1.44222,6.24264 -2.14292,9.275616 -0.74572,3.2278454 -1.46833,6.3556267 -2.14321,9.2768419 -0.79372,3.43561881 -1.52143,6.585517 -2.14311,9.2764417 -1.30522,5.6496184 -2.14304,9.2761114 -2.14304,9.2761114"
       style="font-style:italic;font-variant:normal;font-weight:bold;font-stretch:normal;font-size:21.8722229px;line-height:1.25;font-family:Verdana;-inkscape-font-specification:'Verdana, Bold Italic';font-variant-ligatures:normal;font-variant-caps:normal;font-variant-numeric:normal;font-feature-settings:normal;text-align:start;letter-spacing:0px;word-spacing:0px;writing-mode:lr-tb;text-anchor:start;fill:#000000;fill-opacity:1;stroke:none;stroke-width:1.23469281" />
    <path
       id="path4957"
       d="m 362.14609,16.524218 c -2.95803,0 -5.71682,-0.213675 -8.27637,-0.641025 -2.91416,-0.486556 -5.57005,-1.250094 -7.96767,-2.290613 -2.6399,-1.145665 -4.96671,-2.627119 -6.98041,-4.4443619 -1.94824,-1.7700437 -3.54818,-3.8119234 -4.79984,-6.1256391 -1.18986,-2.19949497 -2.06498,-4.6446491 -2.62534,-7.3354624 -0.49882,-2.3952832 -0.74823,-4.9852278 -0.74823,-7.7698336 0,-2.312934 0.12086,-4.557047 0.36257,-6.732338 0.25435,-2.288995 0.64252,-4.501785 1.16451,-6.638371 0.54253,-2.220624 1.2296,-4.358932 2.06124,-6.414923 1.19496,-2.913731 2.60767,-5.633908 4.23812,-8.160531 1.67893,-2.601745 3.58875,-4.998256 5.72946,-7.189531 2.08964,-2.123341 4.38868,-4.01163 6.89714,-5.664868 2.43721,-1.606288 5.07211,-2.990685 7.9047,-4.153192 2.9026,-1.184391 5.87638,-2.071455 8.92136,-2.661192 3.01981,-0.584863 6.10963,-0.877294 9.26947,-0.877294 2.47715,0 4.86863,0.124599 7.17445,0.373796 2.45699,0.265533 4.81672,0.672538 7.07918,1.221013 2.13558,0.501539 4.16875,1.121247 6.0995,1.859126 2.03434,0.777463 3.95497,1.686116 5.76191,2.725957 0,0 -1.09643,4.497868 -2.19287,8.995736 -1.09643,4.497868 -2.19286,8.995736 -2.19286,8.995736 0,0 -2.19287,0 -2.19287,0 -1.46723,-1.575343 -2.93088,-2.956846 -4.39093,-4.144508 -1.6809,-1.367308 -3.35704,-2.477699 -5.02842,-3.331174 -1.63631,-0.835563 -3.42311,-1.452239 -5.36039,-1.850029 -1.76034,-0.361459 -3.64493,-0.542188 -5.65378,-0.542188 -2.46055,0 -4.77819,0.327951 -6.95293,0.983853 -2.2526,0.679385 -4.35188,1.710625 -6.29783,3.09372 -1.83249,1.30245 -3.52902,2.916919 -5.08958,4.843407 -1.69079,2.101744 -3.08282,4.406808 -4.17609,6.915193 -1.04463,2.396771 -1.8165,4.979171 -2.3156,7.7472 -0.45664,2.532507 -0.68496,5.220399 -0.68496,8.063674 0,2.594636 0.2558,4.8759131 0.76741,6.8438325 0.65452,2.5176665 1.72773,4.5224448 3.21962,6.0143349 1.44224,1.44224865 3.24643,2.49321342 5.41255,3.1528943 1.82598,0.5560909 3.90915,0.8341364 6.24951,0.8341364 2.27015,0 4.47107,-0.223984 6.60276,-0.671952 2.17374,-0.4568037 4.27548,-1.14651425 6.30524,-2.06913157 2.02779,-0.93848243 4.00064,-2.00375973 5.91855,-3.19583193 1.88449,-1.1713003 3.71593,-2.4650153 5.49432,-3.8811448 0,0 1.99352,0 1.99352,0 0,0 -1.08397,4.4355708 -2.16795,8.8711416 -1.08397,4.4355708 -2.16794,8.8711416 -2.16794,8.8711416 -1.49514,0.598053 -3.23947,1.329009 -5.23298,2.192866 -1.99351,0.830628 -3.90396,1.511744 -5.73135,2.043349 -2.39222,0.697731 -4.63493,1.229336 -6.72812,1.594814 -2.05996,0.365475 -4.95055,0.548213 -8.67178,0.548213 0,0 0,0 0,0"
       style="font-style:italic;font-variant:normal;font-weight:bold;font-stretch:normal;font-size:21.8722229px;line-height:1.25;font-family:Verdana;-inkscape-font-specification:'Verdana, Bold Italic';font-variant-ligatures:normal;font-variant-caps:normal;font-variant-numeric:normal;font-feature-settings:normal;text-align:start;letter-spacing:0px;word-spacing:0px;writing-mode:lr-tb;text-anchor:start;fill:#000000;fill-opacity:1;stroke:none;stroke-width:1.23469281" />
    <path
       id="path5354"
       transform="matrix(0.26458333,0,0,0.26458333,10.63961,-60.574957)"
       d="m 37.429688,338.29883 -13.654297,22.94726 h 8.253906 l 9.636719,-16.54882 h 25.357422 l 1.974609,16.54882 h 7.9375 L 73.025391,331.8418 69.115234,302.4375 h -2.960937 v 35.86133 H 45.417969 Z"
       style="font-style:italic;font-variant:normal;font-weight:normal;font-stretch:normal;font-size:4.58611107px;line-height:1.25;font-family:Verdana;-inkscape-font-specification:'Verdana, Italic';font-variant-ligatures:normal;font-variant-caps:normal;font-variant-numeric:normal;font-feature-settings:normal;text-align:start;letter-spacing:0px;word-spacing:0px;writing-mode:lr-tb;text-anchor:start;fill:#000000;fill-opacity:1;stroke:none;stroke-width:4.6665554" />
    <path
       id="path4960"
       transform="matrix(0.26458333,0,0,0.26458333,10.63961,-60.574957)"
       d="m 37.429688,338.29883 h 7.988281 l 17.0625,-29.0293 3.673828,29.0293 V 302.4375 h -7.386719 l -17.496094,29.4043 z"
       style="font-style:italic;font-variant:normal;font-weight:normal;font-stretch:normal;font-size:4.58611107px;line-height:1.25;font-family:Verdana;-inkscape-font-specification:'Verdana, Italic';font-variant-ligatures:normal;font-variant-caps:normal;font-variant-numeric:normal;font-feature-settings:normal;text-align:start;letter-spacing:0px;word-spacing:0px;writing-mode:lr-tb;text-anchor:start;fill:#000000;fill-opacity:1;stroke:none;stroke-width:4.6665554" />
    <path
       id="path4962"
       d="m 44.726757,25.996954 c 0,0.167187 -0.01742,0.3936 -0.05226,0.67924 -0.028,0.285625 -0.0698,0.536421 -0.125391,0.752389 0,0 -1.755581,7.576163 -1.755581,7.576163 0,0 -1.964578,0 -1.964578,0 0,0 1.536132,-6.646123 1.536132,-6.646123 0.08359,-0.369227 0.146296,-0.689689 0.188109,-0.961385 0.04878,-0.278656 0.07317,-0.553837 0.07317,-0.825542 0,-0.585193 -0.146296,-1.024087 -0.438889,-1.316683 -0.285625,-0.299562 -0.804634,-0.449343 -1.557029,-0.449343 -0.529461,0 -1.114655,0.146297 -1.755582,0.43889 -0.633958,0.292593 -1.253983,0.640922 -1.860075,1.044987 0,0 -2.01683,8.715199 -2.01683,8.715199 0,0 -1.964573,0 -1.964573,0 0,0 0.674016,-2.918128 1.348033,-5.836257 0.674016,-2.918128 1.348032,-5.836256 1.348032,-5.836256 0,0 1.964578,0 1.964578,0 0,0 -0.303046,1.295786 -0.303046,1.295786 0.745423,-0.522495 1.442081,-0.923074 2.089973,-1.201736 0.654861,-0.278655 1.327136,-0.417983 2.016825,-0.417983 1.017123,0 1.80783,0.257765 2.372122,0.773295 0.571261,0.508558 0.856892,1.247016 0.856892,2.215373 0,0 -3.2e-5,-1.4e-5 -3.2e-5,-1.4e-5"
       style="font-style:italic;font-variant:normal;font-weight:normal;font-stretch:normal;font-size:4.58611107px;line-height:1.25;font-family:Verdana;-inkscape-font-specification:'Verdana, Italic';font-variant-ligatures:normal;font-variant-caps:normal;font-variant-numeric:normal;font-feature-settings:normal;text-align:start;letter-spacing:0px;word-spacing:0px;writing-mode:lr-tb;text-anchor:start;fill:#000000;fill-opacity:1;stroke:none;stroke-width:1.23469281" />
    <path
       id="path5363"
       transform="matrix(0.26458333,0,0,0.26458333,10.63961,-60.574957)"
       d="m 154.46484,361.24609 h -13.02929 c 1.63066,0.73425 3.41794,1.22461 5.52539,1.22461 2.1591,0 4.06969,-0.21151 5.72851,-0.63281 0.6542,-0.15576 1.17034,-0.40328 1.77539,-0.5918 z"
       style="font-style:italic;font-variant:normal;font-weight:normal;font-stretch:normal;font-size:4.58611107px;line-height:1.25;font-family:Verdana;-inkscape-font-specification:'Verdana, Italic';font-variant-ligatures:normal;font-variant-caps:normal;font-variant-numeric:normal;font-feature-settings:normal;text-align:start;letter-spacing:0px;word-spacing:0px;writing-mode:lr-tb;text-anchor:start;fill:#000000;fill-opacity:1;stroke:none;stroke-width:4.6665554" />
    <path
       id="path5361"
       transform="matrix(0.26458333,0,0,0.26458333,10.63961,-60.574957)"
       d="m 165.24805,361.24609 v -10.86132 c -2.1591,1.50084 -4.48886,2.79156 -6.99024,3.87109 -2.47506,1.05318 -4.91058,1.58008 -7.30664,1.58008 -2.71203,0 -4.71371,-0.50145 -6.0039,-1.50196 -1.1887,-0.92185 -1.76588,-2.26743 -1.85938,-3.94921 h -7.81445 c -0.0172,0.35934 -0.1211,0.65553 -0.1211,1.02734 0,3.2913 1.09388,5.96381 3.2793,8.01758 0.87025,0.80734 1.9249,1.33055 3.00391,1.8164 h 13.02929 c 0.92915,-0.28949 1.91331,-0.54146 2.72657,-0.9082 1.26386,-0.55294 2.50168,-1.21103 3.71289,-1.97461 1.23754,-0.78989 2.21097,-1.39511 2.92187,-1.8164 l -1.10547,4.69921 z"
       style="font-style:italic;font-variant:normal;font-weight:normal;font-stretch:normal;font-size:4.58611107px;line-height:1.25;font-family:Verdana;-inkscape-font-specification:'Verdana, Italic';font-variant-ligatures:normal;font-variant-caps:normal;font-variant-numeric:normal;font-feature-settings:normal;text-align:start;letter-spacing:0px;word-spacing:0px;writing-mode:lr-tb;text-anchor:start;fill:#000000;fill-opacity:1;stroke:none;stroke-width:4.6665554" />
    <path
       id="path4964"
       transform="matrix(0.26458333,0,0,0.26458333,10.63961,-60.574957)"
       d="m 161.18164,316.0625 c -2.65938,0 -5.43764,0.24969 -8.33398,0.75 -2.89634,0.50031 -5.09487,0.94879 -6.59571,1.34375 l -1.46093,7.42578 h 0.39453 c 1.79047,-0.71094 4.12022,-1.42191 6.99023,-2.13281 2.87002,-0.73724 5.42403,-1.10547 7.66211,-1.10547 1.47451,0 2.8181,0.091 4.0293,0.27539 1.23748,0.15791 2.31667,0.47329 3.23828,0.94727 0.92152,0.47394 1.6325,1.10656 2.13281,1.89648 0.50031,0.78991 0.75,1.81622 0.75,3.08008 0,0.57921 -0.0524,1.14623 -0.1582,1.69922 -0.10524,0.52661 -0.2365,1.15924 -0.39453,1.89648 -5.37141,0.15803 -10.16409,0.57911 -14.37696,1.26367 -4.18652,0.65826 -7.76684,1.73746 -10.74218,3.23828 -3.02799,1.52717 -5.31955,3.50143 -6.87305,5.92383 -1.36502,2.14168 -2.025,4.79513 -2.16992,7.82032 h 7.81445 c -0.008,-0.14359 -0.0762,-0.24541 -0.0762,-0.39454 0,-2.21174 0.55429,-4.05478 1.66016,-5.52929 1.10587,-1.5008 2.72464,-2.68576 4.85742,-3.55469 2.05376,-0.86889 4.64793,-1.52697 7.78125,-1.97461 3.15965,-0.47385 6.76543,-0.79118 10.82031,-0.94922 l -2.88281,12.40235 v 10.86132 h 4.85937 l 6.91211,-29.9375 c 0.15744,-0.71091 0.28871,-1.46203 0.39453,-2.25195 0.13168,-0.81626 0.19727,-1.58011 0.19727,-2.29102 0,-3.71258 -1.36906,-6.42329 -4.10742,-8.13476 -2.73836,-1.71147 -6.84555,-2.56836 -12.32227,-2.56836 z"
       style="font-style:italic;font-variant:normal;font-weight:normal;font-stretch:normal;font-size:4.58611107px;line-height:1.25;font-family:Verdana;-inkscape-font-specification:'Verdana, Italic';font-variant-ligatures:normal;font-variant-caps:normal;font-variant-numeric:normal;font-feature-settings:normal;text-align:start;letter-spacing:0px;word-spacing:0px;writing-mode:lr-tb;text-anchor:start;fill:#000000;fill-opacity:1;stroke:none;stroke-width:4.6665554" />
    <path
       id="path4966"
       d="m 65.19806,18.744738 c 0,0 -0.940488,4.065002 -1.880976,8.130004 -0.940489,4.065002 -1.880977,8.130004 -1.880977,8.130004 0,0 -1.964578,0 -1.964578,0 0,0 0.940488,-4.065002 1.880976,-8.130004 0.940489,-4.065002 1.880977,-8.130004 1.880977,-8.130004 0,0 1.964578,0 1.964578,0"
       style="font-style:italic;font-variant:normal;font-weight:normal;font-stretch:normal;font-size:4.58611107px;line-height:1.25;font-family:Verdana;-inkscape-font-specification:'Verdana, Italic';font-variant-ligatures:normal;font-variant-caps:normal;font-variant-numeric:normal;font-feature-settings:normal;text-align:start;letter-spacing:0px;word-spacing:0px;writing-mode:lr-tb;text-anchor:start;fill:#000000;fill-opacity:1;stroke:none;stroke-width:1.23469281" />
    <path
       id="path5368"
       transform="matrix(0.26458333,0,0,0.26458333,10.63961,-60.574957)"
       d="m 217.54492,322.27344 c -0.86156,0.79237 -1.74462,1.55982 -2.49219,2.47851 -2.26441,2.79103 -4.00364,5.97766 -5.21484,9.5586 -1.18487,3.58093 -1.77734,7.34536 -1.77734,11.29492 0,5.26609 1.4621,9.40068 4.38476,12.40234 2.94901,2.97533 7.04346,4.46289 12.28321,4.46289 4.00222,0 7.5042,-0.77659 10.50586,-2.33008 3.00167,-1.57982 5.64871,-3.76562 7.93945,-6.55664 2.21175,-2.6857 3.92161,-5.84492 5.13281,-9.47851 1.21119,-3.63359 1.81836,-7.42544 1.81836,-11.375 0,-2.53995 -0.36132,-4.77605 -1.01953,-6.76172 v 10.2793 h -6.86914 c -0.16746,2.01074 -0.44342,3.9751 -0.95899,5.84179 -0.73725,2.7647 -1.81643,5.20021 -3.23828,7.30664 -1.44817,2.1591 -3.20014,3.84545 -5.2539,5.05664 -2.05377,1.2112 -4.34338,1.81641 -6.8711,1.81641 -3.23864,0 -5.73977,-0.97343 -7.5039,-2.92187 -1.76414,-1.94845 -2.64649,-4.73946 -2.64649,-8.37305 0,-3.00166 0.38095,-5.89843 1.14453,-8.68945 0.17463,-0.63828 0.42767,-1.19187 0.63672,-1.79297 z"
       style="font-style:italic;font-variant:normal;font-weight:normal;font-stretch:normal;font-size:4.58611107px;line-height:1.25;font-family:Verdana;-inkscape-font-specification:'Verdana, Italic';font-variant-ligatures:normal;font-variant-caps:normal;font-variant-numeric:normal;font-feature-settings:normal;text-align:start;letter-spacing:0px;word-spacing:0px;writing-mode:lr-tb;text-anchor:start;fill:#000000;fill-opacity:1;stroke:none;stroke-width:4.6665554" />
    <path
       id="path4968"
       transform="matrix(0.26458333,0,0,0.26458333,10.63961,-60.574957)"
       d="m 217.54492,322.27344 v 12.21875 c 0.70507,-2.02735 1.5459,-3.90928 2.64258,-5.51367 1.47451,-2.13276 3.22451,-3.80442 5.25195,-5.01563 2.02744,-1.23753 4.319,-1.85742 6.87305,-1.85742 3.21231,0 5.70071,0.94795 7.46484,2.84375 1.76414,1.89578 2.64454,4.68679 2.64454,8.37305 0,1.00062 -0.10499,1.95849 -0.18555,2.92578 h 6.86914 v -10.2793 c -0.7474,-2.25472 -1.88831,-4.17869 -3.48438,-5.71875 -3.00165,-2.89635 -7.04322,-4.3457 -12.125,-4.3457 -3.76523,0 -7.2398,0.80399 -10.42578,2.41015 -2.07882,1.05674 -3.86828,2.43495 -5.52539,3.95899 z"
       style="font-style:italic;font-variant:normal;font-weight:normal;font-stretch:normal;font-size:4.58611107px;line-height:1.25;font-family:Verdana;-inkscape-font-specification:'Verdana, Italic';font-variant-ligatures:normal;font-variant-caps:normal;font-variant-numeric:normal;font-feature-settings:normal;text-align:start;letter-spacing:0px;word-spacing:0px;writing-mode:lr-tb;text-anchor:start;fill:#000000;fill-opacity:1;stroke:none;stroke-width:4.6665554" />
    <path
       id="path5377"
       transform="matrix(0.26458333,0,0,0.26458333,10.63961,-60.574957)"
       d="m 263.75977,325.50781 c -2.01532,2.64697 -3.65384,5.60932 -4.82813,8.96094 -1.23753,3.58094 -1.85547,7.27975 -1.85547,11.09766 0,4.76579 1.21041,8.4646 3.63281,11.09765 2.4224,2.6067 5.78042,3.91016 10.07227,3.91016 3.15965,0 5.75186,-0.4338 7.7793,-1.30274 2.02744,-0.89522 4.37188,-2.23881 7.03125,-4.02929 l -0.90821,3.87109 c -0.39496,1.81679 -0.94925,3.45026 -1.66015,4.89844 -0.6846,1.47451 -1.57968,2.76327 -2.68555,3.86914 -1.1322,1.10592 -2.57961,1.97553 -4.34375,2.60742 -1.73781,0.65823 -3.85798,0.98633 -6.35937,0.98633 -2.21176,0 -4.56894,-0.30254 -7.07032,-0.9082 -2.50139,-0.60564 -4.48838,-1.23631 -5.96289,-1.89453 h -0.39453 l -1.69922,7.38476 c 1.92212,0.57933 4.02957,1.04053 6.32031,1.38281 2.31707,0.34229 4.60668,0.51367 6.8711,0.51367 7.05655,10e-6 12.5602,-1.73727 16.50976,-5.21289 3.97589,-3.44928 6.83252,-8.91279 8.57032,-16.39062 l 2.27539,-9.95703 h -7.41797 l -0.62305,2.72851 c -2.1591,1.39546 -4.35762,2.553 -6.5957,3.47461 -2.23809,0.92162 -4.4513,1.38282 -6.63672,1.38282 -3.13332,0 -5.41019,-0.8422 -6.83203,-2.52735 -1.04911,-1.26281 -1.57849,-3.03602 -1.85352,-5.05859 h -1.33593 z"
       style="font-style:italic;font-variant:normal;font-weight:normal;font-stretch:normal;font-size:4.58611107px;line-height:1.25;font-family:Verdana;-inkscape-font-specification:'Verdana, Italic';font-variant-ligatures:normal;font-variant-caps:normal;font-variant-numeric:normal;font-feature-settings:normal;text-align:start;letter-spacing:0px;word-spacing:0px;writing-mode:lr-tb;text-anchor:start;fill:#000000;fill-opacity:1;stroke:none;stroke-width:4.6665554" />
    <path
       id="path4970"
       transform="matrix(0.26458333,0,0,0.26458333,10.63961,-60.574957)"
       d="m 263.75977,325.50781 v 20.88477 h 1.33593 c -0.0977,-0.71859 -0.27929,-1.35543 -0.27929,-2.16992 0,-2.73836 0.39562,-5.47648 1.18554,-8.21485 0.81624,-2.76468 1.94831,-5.1199 3.39649,-7.06836 1.52716,-2.08009 3.34278,-3.70083 5.44922,-4.85937 2.13276,-1.18487 4.48994,-1.77735 7.07031,-1.77735 1.8168,0 3.60696,0.25164 5.37109,0.75196 1.79047,0.47391 3.5297,1.14473 5.21485,2.01367 l -4.86719,21.32422 h 7.41797 l 2.20703,-9.6543 4.48242,-19.60937 h -6.95117 l -0.9082,1.89648 c -1.4745,-0.92162 -3.21178,-1.67274 -5.21289,-2.25195 -1.97479,-0.57922 -4.22619,-0.86719 -6.75391,-0.86719 -3.50194,0 -6.79239,0.81477 -9.87305,2.44727 -3.05432,1.63248 -5.6759,3.80555 -7.86133,6.51757 -0.15861,0.1978 -0.27011,0.43483 -0.42382,0.63672 z"
       style="font-style:italic;font-variant:normal;font-weight:normal;font-stretch:normal;font-size:4.58611107px;line-height:1.25;font-family:Verdana;-inkscape-font-specification:'Verdana, Italic';font-variant-ligatures:normal;font-variant-caps:normal;font-variant-numeric:normal;font-feature-settings:normal;text-align:start;letter-spacing:0px;word-spacing:0px;writing-mode:lr-tb;text-anchor:start;fill:#000000;fill-opacity:1;stroke:none;stroke-width:4.6665554" />
    <path
       id="path5388"
       transform="matrix(0.26458333,0,0,0.26458333,10.63961,-60.574957)"
       d="m 375.87891,328.81641 v 11.49609 c 0,2.4224 -0.53961,4.71395 -1.61914,6.87305 -1.07956,2.13276 -2.66016,3.81715 -4.74024,5.05468 -1.60617,0.97422 -3.51481,1.65973 -5.72656,2.05469 -2.18542,0.36862 -5.02932,0.55274 -8.53125,0.55274 h -10.7832 l 3.37695,-14.53516 h -7.91406 l -4.82227,20.93359 h 21.60352 c 4.08121,0 7.51756,-0.3555 10.30859,-1.0664 2.791,-0.73724 5.46352,-1.96235 8.01758,-3.67383 2.71201,-1.84313 4.8978,-4.25123 6.55664,-7.22656 1.68514,-3.00166 2.52734,-6.17557 2.52734,-9.51953 0,-3.05433 -0.8422,-5.55546 -2.52734,-7.50391 -1.36071,-1.5983 -3.35602,-2.67387 -5.72656,-3.43945 z"
       style="font-style:italic;font-variant:normal;font-weight:normal;font-stretch:normal;font-size:4.58611107px;line-height:1.25;font-family:Verdana;-inkscape-font-specification:'Verdana, Italic';font-variant-ligatures:normal;font-variant-caps:normal;font-variant-numeric:normal;font-feature-settings:normal;text-align:start;letter-spacing:0px;word-spacing:0px;writing-mode:lr-tb;text-anchor:start;fill:#000000;fill-opacity:1;stroke:none;stroke-width:4.6665554" />
    <path
       id="path5386"
       transform="matrix(0.26458333,0,0,0.26458333,10.63961,-60.574957)"
       d="m 375.87891,327.09961 v -8.04883 c -0.15032,0.38728 -0.24223,0.76767 -0.43555,1.16016 -0.86891,1.73774 -2.11948,3.07939 -3.75195,4.02734 -1.26385,0.71091 -2.73869,1.2378 -4.42383,1.58008 -1.68514,0.31594 -3.65941,0.47461 -5.92383,0.47461 h -10.26953 l 2.11523,-9.16406 h -7.9082 l -3.38867,14.71289 -1.95117,8.4707 h 7.91406 l 1.79687,-7.74023 h 11.88868 c 2.92265,0 5.20148,0.10568 6.83398,0.3164 1.65883,0.21071 3.0132,0.64451 4.06641,1.30274 1.29015,0.78986 2.18523,1.64674 2.68554,2.56836 0.50031,0.89523 0.75196,2.07823 0.75196,3.55273 v -11.49609 c -0.51938,-0.16774 -0.93411,-0.42107 -1.50196,-0.54883 v -0.31641 c 0.56146,-0.23503 0.98079,-0.58416 1.50196,-0.85156 z"
       style="font-style:italic;font-variant:normal;font-weight:normal;font-stretch:normal;font-size:4.58611107px;line-height:1.25;font-family:Verdana;-inkscape-font-specification:'Verdana, Italic';font-variant-ligatures:normal;font-variant-caps:normal;font-variant-numeric:normal;font-feature-settings:normal;text-align:start;letter-spacing:0px;word-spacing:0px;writing-mode:lr-tb;text-anchor:start;fill:#000000;fill-opacity:1;stroke:none;stroke-width:4.6665554" />
    <path
       id="path4972"
       transform="matrix(0.26458333,0,0,0.26458333,10.63961,-60.574957)"
       d="m 348.66602,302.4375 -3.38477,14.69141 h 7.9082 l 1.91407,-8.29297 h 8.92578 c 2.63302,0 4.77866,0.10386 6.4375,0.31445 1.65881,0.18437 3.04257,0.64557 4.14843,1.38281 0.68458,0.47395 1.2095,1.07917 1.57813,1.81641 0.3686,0.71094 0.55469,1.6207 0.55469,2.72656 0,1.28976 -0.34384,2.62118 -0.86914,3.97461 v 8.04883 c 2.63171,-1.3503 4.87216,-3.01558 6.47656,-5.19141 1.92214,-2.60671 2.88281,-5.60728 2.88281,-9.0039 0,-1.68515 -0.36821,-3.21286 -1.10547,-4.58203 -0.7109,-1.39549 -1.79009,-2.54028 -3.23828,-3.43555 -1.7378,-1.05323 -3.66115,-1.72602 -5.76758,-2.01563 -2.0801,-0.2896 -5.26478,-0.43359 -9.55664,-0.43359 z"
       style="font-style:italic;font-variant:normal;font-weight:normal;font-stretch:normal;font-size:4.58611107px;line-height:1.25;font-family:Verdana;-inkscape-font-specification:'Verdana, Italic';font-variant-ligatures:normal;font-variant-caps:normal;font-variant-numeric:normal;font-feature-settings:normal;text-align:start;letter-spacing:0px;word-spacing:0px;writing-mode:lr-tb;text-anchor:start;fill:#000000;fill-opacity:1;stroke:none;stroke-width:4.6665554" />
    <path
       id="path5451"
       d="m 119.55831,19.340382 c 0,0 -0.47024,2.037726 -0.47024,2.037726 0,0 -2.21537,0 -2.21537,0 0,0 0.47024,-2.037726 0.47024,-2.037726 0,0 2.21537,0 2.21537,0"
       style="font-style:italic;font-variant:normal;font-weight:normal;font-stretch:normal;font-size:4.58611107px;line-height:1.25;font-family:Verdana;-inkscape-font-specification:'Verdana, Italic';font-variant-ligatures:normal;font-variant-caps:normal;font-variant-numeric:normal;font-feature-settings:normal;text-align:start;letter-spacing:0px;word-spacing:0px;writing-mode:lr-tb;text-anchor:start;fill:#000000;fill-opacity:1;stroke:none;stroke-width:1.23469281" />
    <path
       id="path4974"
       d="m 118.51333,23.332233 c 0,0 -0.67402,2.918128 -1.34803,5.836256 -0.67402,2.918129 -1.34804,5.836257 -1.34804,5.836257 0,0 -1.96458,0 -1.96458,0 0,0 0.67402,-2.918128 1.34804,-5.836257 0.67401,-2.918128 1.34803,-5.836256 1.34803,-5.836256 0,0 1.96458,0 1.96458,0"
       style="font-style:italic;font-variant:normal;font-weight:normal;font-stretch:normal;font-size:4.58611107px;line-height:1.25;font-family:Verdana;-inkscape-font-specification:'Verdana, Italic';font-variant-ligatures:normal;font-variant-caps:normal;font-variant-numeric:normal;font-feature-settings:normal;text-align:start;letter-spacing:0px;word-spacing:0px;writing-mode:lr-tb;text-anchor:start;fill:#000000;fill-opacity:1;stroke:none;stroke-width:1.23469281" />
    <path
       id="path4976"
       d="m 131.41892,25.996954 c 0,0.167187 -0.0174,0.3936 -0.0523,0.67924 -0.028,0.285625 -0.0698,0.536421 -0.12539,0.752389 0,0 -1.75557,7.576163 -1.75557,7.576163 0,0 -1.96458,0 -1.96458,0 0,0 1.53613,-6.646123 1.53613,-6.646123 0.0836,-0.369227 0.1463,-0.689689 0.18811,-0.961385 0.0487,-0.278656 0.0731,-0.553837 0.0731,-0.825542 0,-0.585193 -0.1463,-1.024087 -0.43889,-1.316683 -0.28563,-0.299562 -0.80464,-0.449343 -1.55704,-0.449343 -0.52946,0 -1.11465,0.146297 -1.75557,0.43889 -0.63396,0.292593 -1.25399,0.640922 -1.86008,1.044987 0,0 -2.01683,8.715199 -2.01683,8.715199 0,0 -1.96457,0 -1.96457,0 0,0 0.67402,-2.918128 1.34803,-5.836257 0.67401,-2.918128 1.34803,-5.836256 1.34803,-5.836256 0,0 1.96458,0 1.96458,0 0,0 -0.30305,1.295786 -0.30305,1.295786 0.74543,-0.522495 1.44209,-0.923074 2.08998,-1.201736 0.65485,-0.278655 1.32713,-0.417983 2.01682,-0.417983 1.01713,0 1.80783,0.257765 2.37212,0.773295 0.57127,0.508558 0.8569,1.247016 0.8569,2.215373 0,0 7e-5,-1.4e-5 7e-5,-1.4e-5"
       style="font-style:italic;font-variant:normal;font-weight:normal;font-stretch:normal;font-size:4.58611107px;line-height:1.25;font-family:Verdana;-inkscape-font-specification:'Verdana, Italic';font-variant-ligatures:normal;font-variant-caps:normal;font-variant-numeric:normal;font-feature-settings:normal;text-align:start;letter-spacing:0px;word-spacing:0px;writing-mode:lr-tb;text-anchor:start;fill:#000000;fill-opacity:1;stroke:none;stroke-width:1.23469281" />
    <path
       id="path5395"
       transform="matrix(0.26458333,0,0,0.26458333,10.63961,-60.574957)"
       d="m 482.11914,361.24609 h -13.0293 c 1.63066,0.73425 3.41989,1.22461 5.52735,1.22461 2.15909,0 4.06775,-0.21151 5.72656,-0.63281 0.6542,-0.15576 1.17033,-0.40328 1.77539,-0.5918 z"
       style="font-style:italic;font-variant:normal;font-weight:normal;font-stretch:normal;font-size:4.58611107px;line-height:1.25;font-family:Verdana;-inkscape-font-specification:'Verdana, Italic';font-variant-ligatures:normal;font-variant-caps:normal;font-variant-numeric:normal;font-feature-settings:normal;text-align:start;letter-spacing:0px;word-spacing:0px;writing-mode:lr-tb;text-anchor:start;fill:#000000;fill-opacity:1;stroke:none;stroke-width:4.6665554" />
    <path
       id="path5393"
       transform="matrix(0.26458333,0,0,0.26458333,10.63961,-60.574957)"
       d="m 492.9043,361.24609 v -10.86132 c -2.1591,1.50084 -4.4908,2.79156 -6.99219,3.87109 -2.47504,1.05318 -4.91057,1.58008 -7.30664,1.58008 -2.71204,0 -4.71177,-0.50145 -6.00195,-1.50196 -1.1887,-0.92185 -1.76588,-2.26743 -1.85938,-3.94921 h -7.81445 c -0.0172,0.35934 -0.1211,0.65553 -0.1211,1.02734 0,3.2913 1.09192,5.96381 3.27735,8.01758 0.87024,0.80734 1.9249,1.33055 3.0039,1.8164 h 13.0293 c 0.92915,-0.28949 1.91329,-0.54146 2.72656,-0.9082 1.26385,-0.55294 2.50171,-1.21103 3.71289,-1.97461 1.23755,-0.78989 2.21293,-1.39511 2.92383,-1.8164 l -1.10547,4.69921 z"
       style="font-style:italic;font-variant:normal;font-weight:normal;font-stretch:normal;font-size:4.58611107px;line-height:1.25;font-family:Verdana;-inkscape-font-specification:'Verdana, Italic';font-variant-ligatures:normal;font-variant-caps:normal;font-variant-numeric:normal;font-feature-settings:normal;text-align:start;letter-spacing:0px;word-spacing:0px;writing-mode:lr-tb;text-anchor:start;fill:#000000;fill-opacity:1;stroke:none;stroke-width:4.6665554" />
    <path
       id="path4978"
       transform="matrix(0.26458333,0,0,0.26458333,10.63961,-60.574957)"
       d="m 488.83594,316.0625 c -2.65935,0 -5.43763,0.24969 -8.33399,0.75 -2.89635,0.50031 -5.09487,0.94879 -6.5957,1.34375 l -1.46094,7.42578 h 0.39453 c 1.79047,-0.71094 4.12217,-1.42191 6.99219,-2.13281 2.87,-0.73724 5.424,-1.10547 7.66211,-1.10547 1.4745,0 2.81616,0.091 4.02734,0.27539 1.2375,0.15791 2.31669,0.47329 3.23829,0.94727 0.92152,0.47394 1.6325,1.10656 2.13281,1.89648 0.50033,0.78991 0.75195,1.81622 0.75195,3.08008 0,0.57921 -0.0543,1.14623 -0.16015,1.69922 -0.1053,0.52661 -0.23655,1.15924 -0.39454,1.89648 -5.37139,0.15803 -10.16409,0.57911 -14.37695,1.26367 -4.18653,0.65826 -7.76684,1.73746 -10.74219,3.23828 -3.02798,1.52717 -5.3176,3.50143 -6.87109,5.92383 -1.36502,2.14168 -2.025,4.79513 -2.16992,7.82032 h 7.81445 c -0.008,-0.14359 -0.0762,-0.24541 -0.0762,-0.39454 0,-2.21174 0.55236,-4.05478 1.6582,-5.52929 1.10589,-1.5008 2.72466,-2.68576 4.85742,-3.55469 2.05377,-0.86889 4.64792,-1.52697 7.78125,-1.97461 3.15964,-0.47385 6.76739,-0.79118 10.82227,-0.94922 l -2.88281,12.40235 v 10.86132 h 4.85742 l 6.91211,-29.9375 c 0.15745,-0.71091 0.2887,-1.46203 0.39453,-2.25195 0.13178,-0.81626 0.19726,-1.58011 0.19726,-2.29102 0,-3.71258 -1.36907,-6.42329 -4.10742,-8.13476 -2.73837,-1.71147 -6.84553,-2.56836 -12.32226,-2.56836 z"
       style="font-style:italic;font-variant:normal;font-weight:normal;font-stretch:normal;font-size:4.58611107px;line-height:1.25;font-family:Verdana;-inkscape-font-specification:'Verdana, Italic';font-variant-ligatures:normal;font-variant-caps:normal;font-variant-numeric:normal;font-feature-settings:normal;text-align:start;letter-spacing:0px;word-spacing:0px;writing-mode:lr-tb;text-anchor:start;fill:#000000;fill-opacity:1;stroke:none;stroke-width:4.6665554" />
    <path
       id="path4980"
       d="m 155.56858,25.40131 c 0,0 -0.10449,0 -0.10449,0 -0.27865,-0.06966 -0.5399,-0.118422 -0.78374,-0.146297 -0.23687,-0.03485 -0.52599,-0.05227 -0.86734,-0.05227 -0.65485,0 -1.30623,0.149781 -1.95412,0.449342 -0.64093,0.292593 -1.25747,0.647889 -1.84963,1.065888 0,0 -1.88098,8.286754 -1.88098,8.286754 0,0 -1.98548,0 -1.98548,0 0,0 0.66618,-2.918128 1.33236,-5.836256 0.66618,-2.918129 1.33236,-5.836257 1.33236,-5.836257 0,0 1.98548,0 1.98548,0 0,0 -0.39708,1.724232 -0.39708,1.724232 0.92655,-0.647892 1.71029,-1.097238 2.35122,-1.348037 0.64789,-0.250781 1.26792,-0.376171 1.86008,-0.376171 0.34137,0 0.58868,0.01042 0.74194,0.03127 0.15325,0.014 0.37619,0.04534 0.6688,0.09403 0,0 -0.44938,1.943772 -0.44938,1.943772"
       style="font-style:italic;font-variant:normal;font-weight:normal;font-stretch:normal;font-size:4.58611107px;line-height:1.25;font-family:Verdana;-inkscape-font-specification:'Verdana, Italic';font-variant-ligatures:normal;font-variant-caps:normal;font-variant-numeric:normal;font-feature-settings:normal;text-align:start;letter-spacing:0px;word-spacing:0px;writing-mode:lr-tb;text-anchor:start;fill:#000000;fill-opacity:1;stroke:none;stroke-width:1.23469281" />
    <path
       id="path4982"
       d="m 157.40775,39.310092 c 0,0 -2.16312,0 -2.16312,0 0,0 3.39621,-4.984591 3.39621,-4.984591 0,0 -0.52772,-2.748317 -1.05544,-5.496634 -0.52771,-2.748317 -1.05543,-5.496634 -1.05543,-5.496634 0,0 2.01682,0 2.01682,0 0,0 1.65108,8.683845 1.65108,8.683845 0,0 1.39506,-2.170961 2.79011,-4.341923 1.39506,-2.170961 2.79012,-4.341922 2.79012,-4.341922 0,0 2.14223,0 2.14223,0 0,0 -2.62815,3.994465 -5.25629,7.988929 -2.62815,3.994465 -5.25629,7.98893 -5.25629,7.98893"
       style="font-style:italic;font-variant:normal;font-weight:normal;font-stretch:normal;font-size:4.58611107px;line-height:1.25;font-family:Verdana;-inkscape-font-specification:'Verdana, Italic';font-variant-ligatures:normal;font-variant-caps:normal;font-variant-numeric:normal;font-feature-settings:normal;text-align:start;letter-spacing:0px;word-spacing:0px;writing-mode:lr-tb;text-anchor:start;fill:#000000;fill-opacity:1;stroke:none;stroke-width:1.23469281" />
    <path
       id="path4984"
       d="m 181.13942,35.004746 c 0,0 -6.16542,0 -6.16542,0 0,0 0.34485,-1.515236 0.34485,-1.515236 0,0 2.03773,0 2.03773,0 0,0 0.72626,-3.13235 1.45253,-6.2647 0.72626,-3.132349 1.45253,-6.264699 1.45253,-6.264699 0,0 -2.03772,0 -2.03772,0 0,0 0.34485,-1.515231 0.34485,-1.515231 0,0 6.16543,0 6.16543,0 0,0 -0.34486,1.515231 -0.34486,1.515231 0,0 -2.03772,0 -2.03772,0 0,0 -0.72627,3.13235 -1.45253,6.264699 -0.72627,3.13235 -1.45254,6.2647 -1.45254,6.2647 0,0 2.03773,0 2.03773,0 0,0 -0.34486,1.515236 -0.34486,1.515236"
       style="font-style:italic;font-variant:normal;font-weight:normal;font-stretch:normal;font-size:4.58611107px;line-height:1.25;font-family:Verdana;-inkscape-font-specification:'Verdana, Italic';font-variant-ligatures:normal;font-variant-caps:normal;font-variant-numeric:normal;font-feature-settings:normal;text-align:start;letter-spacing:0px;word-spacing:0px;writing-mode:lr-tb;text-anchor:start;fill:#000000;fill-opacity:1;stroke:none;stroke-width:1.23469281" />
    <path
       id="path4986"
       d="m 196.20814,25.996954 c 0,0.167187 -0.0174,0.3936 -0.0523,0.67924 -0.028,0.285625 -0.0698,0.536421 -0.12539,0.752389 0,0 -1.75558,7.576163 -1.75558,7.576163 0,0 -1.96458,0 -1.96458,0 0,0 1.53613,-6.646123 1.53613,-6.646123 0.0836,-0.369227 0.1463,-0.689689 0.18811,-0.961385 0.0488,-0.278656 0.0732,-0.553837 0.0732,-0.825542 0,-0.585193 -0.1463,-1.024087 -0.43889,-1.316683 -0.28562,-0.299562 -0.80463,-0.449343 -1.55703,-0.449343 -0.52946,0 -1.11465,0.146297 -1.75558,0.43889 -0.63396,0.292593 -1.25399,0.640922 -1.86008,1.044987 0,0 -2.01682,8.715199 -2.01682,8.715199 0,0 -1.96458,0 -1.96458,0 0,0 0.67402,-2.918128 1.34803,-5.836257 0.67402,-2.918128 1.34804,-5.836256 1.34804,-5.836256 0,0 1.96458,0 1.96458,0 0,0 -0.30305,1.295786 -0.30305,1.295786 0.74543,-0.522495 1.44209,-0.923074 2.08998,-1.201736 0.65486,-0.278655 1.32713,-0.417983 2.01682,-0.417983 1.01713,0 1.80784,0.257765 2.37213,0.773295 0.57126,0.508558 0.85689,1.247016 0.85689,2.215373 0,0 -3e-5,-1.4e-5 -3e-5,-1.4e-5"
       style="font-style:italic;font-variant:normal;font-weight:normal;font-stretch:normal;font-size:4.58611107px;line-height:1.25;font-family:Verdana;-inkscape-font-specification:'Verdana, Italic';font-variant-ligatures:normal;font-variant-caps:normal;font-variant-numeric:normal;font-feature-settings:normal;text-align:start;letter-spacing:0px;word-spacing:0px;writing-mode:lr-tb;text-anchor:start;fill:#000000;fill-opacity:1;stroke:none;stroke-width:1.23469281" />
    <path
       id="path4988"
       d="m 207.55671,20.573468 c 0,0 -0.10449,0 -0.10449,0 -0.20203,-0.06966 -0.47024,-0.135843 -0.80464,-0.198562 -0.33439,-0.06269 -0.63396,-0.09403 -0.89869,-0.09403 -0.85689,0 -1.50129,0.215964 -1.93322,0.647891 -0.42497,0.43193 -0.74543,1.100722 -0.96139,2.006376 0,0 -0.094,0.397077 -0.094,0.397077 0,0 3.54251,0 3.54251,0 0,0 -0.37622,1.567483 -0.37622,1.567483 0,0 -3.47981,0 -3.47981,0 0,0 -0.56952,2.526257 -1.13904,5.052515 -0.56951,2.526258 -1.13903,5.052515 -1.13903,5.052515 0,0 -1.98548,0 -1.98548,0 0,0 0.56952,-2.526257 1.13903,-5.052515 0.56952,-2.526258 1.13904,-5.052515 1.13904,-5.052515 0,0 -1.32713,0 -1.32713,0 0,0 0.37622,-1.567483 0.37622,-1.567483 0,0 1.32713,0 1.32713,0 0,0 0.0836,-0.386624 0.0836,-0.386624 0.28563,-1.365453 0.84295,-2.424373 1.67198,-3.176762 0.83599,-0.752392 1.90884,-1.128588 3.21856,-1.128588 0.43889,0 0.83599,0.02091 1.19129,0.06272 0.35529,0.04181 0.67575,0.09058 0.96138,0.146297 0,0 -0.4076,1.724205 -0.4076,1.724205"
       style="font-style:italic;font-variant:normal;font-weight:normal;font-stretch:normal;font-size:4.58611107px;line-height:1.25;font-family:Verdana;-inkscape-font-specification:'Verdana, Italic';font-variant-ligatures:normal;font-variant-caps:normal;font-variant-numeric:normal;font-feature-settings:normal;text-align:start;letter-spacing:0px;word-spacing:0px;writing-mode:lr-tb;text-anchor:start;fill:#000000;fill-opacity:1;stroke:none;stroke-width:1.23469281" />
    <path
       id="path5473"
       d="m 211.30821,19.340382 c 0,0 -0.47024,2.037726 -0.47024,2.037726 0,0 -2.21538,0 -2.21538,0 0,0 0.47025,-2.037726 0.47025,-2.037726 0,0 2.21537,0 2.21537,0"
       style="font-style:italic;font-variant:normal;font-weight:normal;font-stretch:normal;font-size:4.58611107px;line-height:1.25;font-family:Verdana;-inkscape-font-specification:'Verdana, Italic';font-variant-ligatures:normal;font-variant-caps:normal;font-variant-numeric:normal;font-feature-settings:normal;text-align:start;letter-spacing:0px;word-spacing:0px;writing-mode:lr-tb;text-anchor:start;fill:#000000;fill-opacity:1;stroke:none;stroke-width:1.23469281" />
    <path
       id="path4990"
       d="m 210.26322,23.332233 c 0,0 -0.67402,2.918128 -1.34803,5.836256 -0.67402,2.918129 -1.34803,5.836257 -1.34803,5.836257 0,0 -1.96458,0 -1.96458,0 0,0 0.67402,-2.918128 1.34803,-5.836257 0.67402,-2.918128 1.34804,-5.836256 1.34804,-5.836256 0,0 1.96457,0 1.96457,0"
       style="font-style:italic;font-variant:normal;font-weight:normal;font-stretch:normal;font-size:4.58611107px;line-height:1.25;font-family:Verdana;-inkscape-font-specification:'Verdana, Italic';font-variant-ligatures:normal;font-variant-caps:normal;font-variant-numeric:normal;font-feature-settings:normal;text-align:start;letter-spacing:0px;word-spacing:0px;writing-mode:lr-tb;text-anchor:start;fill:#000000;fill-opacity:1;stroke:none;stroke-width:1.23469281" />
    <path
       id="path4992"
       d="m 223.16883,25.996954 c 0,0.167187 -0.0174,0.3936 -0.0523,0.67924 -0.028,0.285625 -0.0698,0.536421 -0.12539,0.752389 0,0 -1.75558,7.576163 -1.75558,7.576163 0,0 -1.96457,0 -1.96457,0 0,0 1.53613,-6.646123 1.53613,-6.646123 0.0836,-0.369227 0.1463,-0.689689 0.18811,-0.961385 0.0488,-0.278656 0.0732,-0.553837 0.0732,-0.825542 0,-0.585193 -0.1463,-1.024087 -0.43889,-1.316683 -0.28563,-0.299562 -0.80464,-0.449343 -1.55703,-0.449343 -0.52946,0 -1.11465,0.146297 -1.75558,0.43889 -0.63396,0.292593 -1.25399,0.640922 -1.86008,1.044987 0,0 -2.01682,8.715199 -2.01682,8.715199 0,0 -1.96458,0 -1.96458,0 0,0 0.67402,-2.918128 1.34803,-5.836257 0.67402,-2.918128 1.34804,-5.836256 1.34804,-5.836256 0,0 1.96457,0 1.96457,0 0,0 -0.30304,1.295786 -0.30304,1.295786 0.74543,-0.522495 1.44209,-0.923074 2.08998,-1.201736 0.65485,-0.278655 1.32713,-0.417983 2.01682,-0.417983 1.01712,0 1.80783,0.257765 2.37212,0.773295 0.57126,0.508558 0.85689,1.247016 0.85689,2.215373 0,0 -3e-5,-1.4e-5 -3e-5,-1.4e-5"
       style="font-style:italic;font-variant:normal;font-weight:normal;font-stretch:normal;font-size:4.58611107px;line-height:1.25;font-family:Verdana;-inkscape-font-specification:'Verdana, Italic';font-variant-ligatures:normal;font-variant-caps:normal;font-variant-numeric:normal;font-feature-settings:normal;text-align:start;letter-spacing:0px;word-spacing:0px;writing-mode:lr-tb;text-anchor:start;fill:#000000;fill-opacity:1;stroke:none;stroke-width:1.23469281" />
    <path
       id="path5479"
       d="m 230.74497,19.340382 c 0,0 -0.47024,2.037726 -0.47024,2.037726 0,0 -2.21538,0 -2.21538,0 0,0 0.47025,-2.037726 0.47025,-2.037726 0,0 2.21537,0 2.21537,0"
       style="font-style:italic;font-variant:normal;font-weight:normal;font-stretch:normal;font-size:4.58611107px;line-height:1.25;font-family:Verdana;-inkscape-font-specification:'Verdana, Italic';font-variant-ligatures:normal;font-variant-caps:normal;font-variant-numeric:normal;font-feature-settings:normal;text-align:start;letter-spacing:0px;word-spacing:0px;writing-mode:lr-tb;text-anchor:start;fill:#000000;fill-opacity:1;stroke:none;stroke-width:1.23469281" />
    <path
       id="path4994"
       d="m 229.69998,23.332233 c 0,0 -0.67401,2.918128 -1.34803,5.836256 -0.67402,2.918129 -1.34803,5.836257 -1.34803,5.836257 0,0 -1.96458,0 -1.96458,0 0,0 0.67402,-2.918128 1.34803,-5.836257 0.67402,-2.918128 1.34804,-5.836256 1.34804,-5.836256 0,0 1.96457,0 1.96457,0"
       style="font-style:italic;font-variant:normal;font-weight:normal;font-stretch:normal;font-size:4.58611107px;line-height:1.25;font-family:Verdana;-inkscape-font-specification:'Verdana, Italic';font-variant-ligatures:normal;font-variant-caps:normal;font-variant-numeric:normal;font-feature-settings:normal;text-align:start;letter-spacing:0px;word-spacing:0px;writing-mode:lr-tb;text-anchor:start;fill:#000000;fill-opacity:1;stroke:none;stroke-width:1.23469281" />
    <path
       id="path4996"
       d="m 239.66918,23.332233 c 0,0 -0.35532,1.588384 -0.35532,1.588384 0,0 -4.05455,0 -4.05455,0 0,0 -1.25398,5.381682 -1.25398,5.381682 -0.0696,0.271687 -0.13236,0.585184 -0.18811,0.940489 -0.0557,0.34833 -0.0836,0.626993 -0.0836,0.83599 0,0.508561 0.12888,0.88824 0.38663,1.139036 0.25778,0.243843 0.73499,0.365765 1.43163,0.365765 0.28563,0 0.62351,-0.04877 1.01364,-0.146297 0.39709,-0.09753 0.66531,-0.174155 0.80464,-0.229874 0,0 0.10448,0 0.10448,0 0,0 -0.36576,1.692882 -0.36576,1.692882 -0.39013,0.09753 -0.80812,0.17764 -1.25398,0.240327 -0.4389,0.06269 -0.82903,0.09403 -1.17039,0.09403 -0.96139,0 -1.70681,-0.208998 -2.23627,-0.626994 -0.52249,-0.424961 -0.78374,-1.093753 -0.78374,-2.006376 0,-0.222937 0.014,-0.442385 0.042,-0.658344 0.0349,-0.222937 0.0802,-0.473733 0.13584,-0.752388 0,0 1.45253,-6.269924 1.45253,-6.269924 0,0 -1.32713,0 -1.32713,0 0,0 0.35531,-1.588384 0.35531,-1.588384 0,0 1.32714,0 1.32714,0 0,0 0.78373,-3.354409 0.78373,-3.354409 0,0 1.96458,0 1.96458,0 0,0 -0.78374,3.354409 -0.78374,3.354409 0,0 4.05442,-4e-6 4.05442,-4e-6"
       style="font-style:italic;font-variant:normal;font-weight:normal;font-stretch:normal;font-size:4.58611107px;line-height:1.25;font-family:Verdana;-inkscape-font-specification:'Verdana, Italic';font-variant-ligatures:normal;font-variant-caps:normal;font-variant-numeric:normal;font-feature-settings:normal;text-align:start;letter-spacing:0px;word-spacing:0px;writing-mode:lr-tb;text-anchor:start;fill:#000000;fill-opacity:1;stroke:none;stroke-width:1.23469281" />
    <path
       id="path4998"
       d="m 241.46656,39.310092 c 0,0 -2.16313,0 -2.16313,0 0,0 3.39621,-4.984591 3.39621,-4.984591 0,0 -0.52772,-2.748317 -1.05544,-5.496634 -0.52772,-2.748317 -1.05544,-5.496634 -1.05544,-5.496634 0,0 2.01683,0 2.01683,0 0,0 1.65108,8.683845 1.65108,8.683845 0,0 1.39506,-2.170961 2.79012,-4.341923 1.39506,-2.170961 2.79012,-4.341922 2.79012,-4.341922 0,0 2.14222,0 2.14222,0 0,0 -2.62814,3.994465 -5.25629,7.988929 -2.62814,3.994465 -5.25628,7.98893 -5.25628,7.98893"
       style="font-style:italic;font-variant:normal;font-weight:normal;font-stretch:normal;font-size:4.58611107px;line-height:1.25;font-family:Verdana;-inkscape-font-specification:'Verdana, Italic';font-variant-ligatures:normal;font-variant-caps:normal;font-variant-numeric:normal;font-feature-settings:normal;text-align:start;letter-spacing:0px;word-spacing:0px;writing-mode:lr-tb;text-anchor:start;fill:#000000;fill-opacity:1;stroke:none;stroke-width:1.23469281" />
    <path
       id="path5000"
       d="m 273.56857,35.004746 c 0,0 -2.08997,0 -2.08997,0 0,0 0.76806,-3.304773 1.53613,-6.609547 0.76807,-3.304773 1.53613,-6.609546 1.53613,-6.609546 0,0 -1.58054,2.233661 -3.16109,4.467322 -1.58054,2.233661 -3.16108,4.467322 -3.16108,4.467322 0,0 -1.23309,0 -1.23309,0 0,0 -2.19447,-9.342189 -2.19447,-9.342189 0,0 -0.78897,3.406659 -1.57794,6.813319 -0.78896,3.406659 -1.57793,6.813319 -1.57793,6.813319 0,0 -1.95412,0 -1.95412,0 0,0 0.89869,-3.889967 1.79737,-7.779933 0.89869,-3.889967 1.79738,-7.779933 1.79738,-7.779933 0,0 2.84237,0 2.84237,0 0,0 2.10043,8.662948 2.10043,8.662948 0,0 1.51523,-2.165737 3.03046,-4.331474 1.51523,-2.165737 3.03046,-4.331474 3.03046,-4.331474 0,0 2.87372,0 2.87372,0 0,0 -0.89869,3.889966 -1.79738,7.779933 -0.89869,3.889966 -1.79738,7.779933 -1.79738,7.779933"
       style="font-style:italic;font-variant:normal;font-weight:normal;font-stretch:normal;font-size:4.58611107px;line-height:1.25;font-family:Verdana;-inkscape-font-specification:'Verdana, Italic';font-variant-ligatures:normal;font-variant-caps:normal;font-variant-numeric:normal;font-feature-settings:normal;text-align:start;letter-spacing:0px;word-spacing:0px;writing-mode:lr-tb;text-anchor:start;fill:#000000;fill-opacity:1;stroke:none;stroke-width:1.23469281" />
    <path
       id="path5489"
       d="m 283.32875,19.340382 c 0,0 -0.47025,2.037726 -0.47025,2.037726 0,0 -2.21537,0 -2.21537,0 0,0 0.47024,-2.037726 0.47024,-2.037726 0,0 2.21538,0 2.21538,0"
       style="font-style:italic;font-variant:normal;font-weight:normal;font-stretch:normal;font-size:4.58611107px;line-height:1.25;font-family:Verdana;-inkscape-font-specification:'Verdana, Italic';font-variant-ligatures:normal;font-variant-caps:normal;font-variant-numeric:normal;font-feature-settings:normal;text-align:start;letter-spacing:0px;word-spacing:0px;writing-mode:lr-tb;text-anchor:start;fill:#000000;fill-opacity:1;stroke:none;stroke-width:1.23469281" />
    <path
       id="path5002"
       d="m 282.28376,23.332233 c 0,0 -0.67402,2.918128 -1.34804,5.836256 -0.67401,2.918129 -1.34803,5.836257 -1.34803,5.836257 0,0 -1.96457,0 -1.96457,0 0,0 0.67402,-2.918128 1.34803,-5.836257 0.67402,-2.918128 1.34804,-5.836256 1.34804,-5.836256 0,0 1.96457,0 1.96457,0"
       style="font-style:italic;font-variant:normal;font-weight:normal;font-stretch:normal;font-size:4.58611107px;line-height:1.25;font-family:Verdana;-inkscape-font-specification:'Verdana, Italic';font-variant-ligatures:normal;font-variant-caps:normal;font-variant-numeric:normal;font-feature-settings:normal;text-align:start;letter-spacing:0px;word-spacing:0px;writing-mode:lr-tb;text-anchor:start;fill:#000000;fill-opacity:1;stroke:none;stroke-width:1.23469281" />
    <path
       id="path5004"
       d="m 292.92174,25.40131 c 0,0 -0.10448,0 -0.10448,0 -0.27866,-0.06966 -0.53991,-0.118422 -0.78375,-0.146297 -0.23687,-0.03485 -0.52599,-0.05227 -0.86734,-0.05227 -0.65485,0 -1.30623,0.149781 -1.95412,0.449342 -0.64093,0.292593 -1.25747,0.647889 -1.84963,1.065888 0,0 -1.88098,8.286754 -1.88098,8.286754 0,0 -1.98547,0 -1.98547,0 0,0 0.66618,-2.918128 1.33236,-5.836256 0.66618,-2.918129 1.33236,-5.836257 1.33236,-5.836257 0,0 1.98547,0 1.98547,0 0,0 -0.39708,1.724232 -0.39708,1.724232 0.92656,-0.647892 1.7103,-1.097238 2.35123,-1.348037 0.64789,-0.250781 1.26791,-0.376171 1.86008,-0.376171 0.34136,0 0.58867,0.01042 0.74194,0.03127 0.15325,0.014 0.37618,0.04534 0.66879,0.09403 0,0 -0.44938,1.943772 -0.44938,1.943772"
       style="font-style:italic;font-variant:normal;font-weight:normal;font-stretch:normal;font-size:4.58611107px;line-height:1.25;font-family:Verdana;-inkscape-font-specification:'Verdana, Italic';font-variant-ligatures:normal;font-variant-caps:normal;font-variant-numeric:normal;font-feature-settings:normal;text-align:start;letter-spacing:0px;word-spacing:0px;writing-mode:lr-tb;text-anchor:start;fill:#000000;fill-opacity:1;stroke:none;stroke-width:1.23469281" />
    <path
       id="path5006"
       d="m 302.07582,25.40131 c 0,0 -0.10448,0 -0.10448,0 -0.27866,-0.06966 -0.53991,-0.118422 -0.78374,-0.146297 -0.23687,-0.03485 -0.52599,-0.05227 -0.86734,-0.05227 -0.65486,0 -1.30624,0.149781 -1.95413,0.449342 -0.64093,0.292593 -1.25747,0.647889 -1.84963,1.065888 0,0 -1.88097,8.286754 -1.88097,8.286754 0,0 -1.98549,0 -1.98549,0 0,0 0.66618,-2.918128 1.33235,-5.836256 0.66618,-2.918129 1.33236,-5.836257 1.33236,-5.836257 0,0 1.98548,0 1.98548,0 0,0 -0.39708,1.724232 -0.39708,1.724232 0.92656,-0.647892 1.7103,-1.097238 2.35123,-1.348037 0.64789,-0.250781 1.26791,-0.376171 1.86008,-0.376171 0.34136,0 0.58867,0.01042 0.74194,0.03127 0.15325,0.014 0.37618,0.04534 0.66879,0.09403 0,0 -0.44937,1.943772 -0.44937,1.943772"
       style="font-style:italic;font-variant:normal;font-weight:normal;font-stretch:normal;font-size:4.58611107px;line-height:1.25;font-family:Verdana;-inkscape-font-specification:'Verdana, Italic';font-variant-ligatures:normal;font-variant-caps:normal;font-variant-numeric:normal;font-feature-settings:normal;text-align:start;letter-spacing:0px;word-spacing:0px;writing-mode:lr-tb;text-anchor:start;fill:#000000;fill-opacity:1;stroke:none;stroke-width:1.23469281" />
    <path
       id="path5400"
       transform="matrix(0.26458333,0,0,0.26458333,10.63961,-60.574957)"
       d="m 1102.0547,349.39648 h 8.0215 c -0.3715,-1.31248 -0.6074,-2.75458 -0.6074,-4.42187 -1e-4,-3.00166 0.3829,-5.89843 1.1464,-8.68945 0.7636,-2.79104 1.8555,-5.22655 3.2774,-7.30664 1.1381,-1.64626 2.4933,-2.93212 3.9609,-4.0293 h -9.2285 c -2.1918,2.74653 -3.8956,5.85931 -5.0801,9.36133 -1.1849,3.58093 -1.7773,7.34536 -1.7773,11.29492 0,1.33753 0.099,2.59956 0.2871,3.79101 z"
       style="font-style:italic;font-variant:normal;font-weight:normal;font-stretch:normal;font-size:4.58611107px;line-height:1.25;font-family:Verdana;-inkscape-font-specification:'Verdana, Italic';font-variant-ligatures:normal;font-variant-caps:normal;font-variant-numeric:normal;font-feature-settings:normal;text-align:start;letter-spacing:0px;word-spacing:0px;writing-mode:lr-tb;text-anchor:start;fill:#000000;fill-opacity:1;stroke:none;stroke-width:4.6665554" />
    <path
       id="path5008"
       transform="matrix(0.26458333,0,0,0.26458333,10.63961,-60.574957)"
       d="m 1127.2031,315.9043 c -3.7652,0 -7.2417,0.80399 -10.4277,2.41015 -3.1596,1.60616 -5.8322,3.75181 -8.0176,6.4375 -0.05,0.0615 -0.083,0.13537 -0.1328,0.19727 h 9.2285 c 0.4337,-0.32424 0.8305,-0.71004 1.293,-0.98633 2.0274,-1.23753 4.317,-1.85742 6.8711,-1.85742 3.2123,0 5.7007,0.94795 7.4648,2.84375 1.7642,1.89578 2.6465,4.68679 2.6465,8.37305 0,3.08066 -0.381,6.00289 -1.1445,8.76757 -0.7373,2.7647 -1.8184,5.20021 -3.2403,7.30664 -1.4481,2.1591 -3.1981,3.84545 -5.2519,5.05664 -2.0538,1.2112 -4.3453,1.81641 -6.8731,1.81641 -3.2386,0 -5.7397,-0.97343 -7.5039,-2.92187 -0.9546,-1.0544 -1.601,-2.4033 -2.039,-3.95118 h -8.0215 c 0.5538,3.49949 1.9173,6.37207 4.0976,8.61133 2.949,2.97533 7.0435,4.46289 12.2832,4.46289 4.0023,0 7.5043,-0.77659 10.5059,-2.33008 3.0017,-1.57982 5.6468,-3.76562 7.9375,-6.55664 2.2118,-2.6857 3.9236,-5.84492 5.1348,-9.47851 1.2112,-3.63359 1.8164,-7.42544 1.8164,-11.375 0,-5.42406 -1.5003,-9.58413 -4.502,-12.48047 -3.0016,-2.89635 -7.0432,-4.3457 -12.125,-4.3457 z"
       style="font-style:italic;font-variant:normal;font-weight:normal;font-stretch:normal;font-size:4.58611107px;line-height:1.25;font-family:Verdana;-inkscape-font-specification:'Verdana, Italic';font-variant-ligatures:normal;font-variant-caps:normal;font-variant-numeric:normal;font-feature-settings:normal;text-align:start;letter-spacing:0px;word-spacing:0px;writing-mode:lr-tb;text-anchor:start;fill:#000000;fill-opacity:1;stroke:none;stroke-width:4.6665554" />
    <path
       id="path5010"
       d="m 324.22955,25.40131 c 0,0 -0.10448,0 -0.10448,0 -0.27865,-0.06966 -0.5399,-0.118422 -0.78374,-0.146297 -0.23687,-0.03485 -0.52599,-0.05227 -0.86734,-0.05227 -0.65486,0 -1.30623,0.149781 -1.95412,0.449342 -0.64093,0.292593 -1.25747,0.647889 -1.84964,1.065888 0,0 -1.88097,8.286754 -1.88097,8.286754 0,0 -1.98548,0 -1.98548,0 0,0 0.66618,-2.918128 1.33236,-5.836256 0.66618,-2.918129 1.33236,-5.836257 1.33236,-5.836257 0,0 1.98548,0 1.98548,0 0,0 -0.39708,1.724232 -0.39708,1.724232 0.92655,-0.647892 1.71029,-1.097238 2.35122,-1.348037 0.64789,-0.250781 1.26792,-0.376171 1.86008,-0.376171 0.34136,0 0.58867,0.01042 0.74194,0.03127 0.15328,0.014 0.37621,0.04534 0.66879,0.09403 0,0 -0.44938,1.943772 -0.44938,1.943772"
       style="font-style:italic;font-variant:normal;font-weight:normal;font-stretch:normal;font-size:4.58611107px;line-height:1.25;font-family:Verdana;-inkscape-font-specification:'Verdana, Italic';font-variant-ligatures:normal;font-variant-caps:normal;font-variant-numeric:normal;font-feature-settings:normal;text-align:start;letter-spacing:0px;word-spacing:0px;writing-mode:lr-tb;text-anchor:start;fill:#000000;fill-opacity:1;stroke:none;stroke-width:1.23469281" />
    <path
       id="path5012"
       d="m 338.60859,35.28689 c -1.97154,0 -3.51812,-0.50856 -4.63974,-1.525679 -1.12162,-1.024088 -1.68243,-2.473138 -1.68243,-4.347149 0,-1.435118 0.21596,-2.772702 0.64789,-4.012752 0.43193,-1.240053 1.05195,-2.32684 1.86008,-3.26036 0.80116,-0.919591 1.78693,-1.644116 2.95731,-2.173574 1.17039,-0.536427 2.47662,-0.80464 3.91871,-0.80464 0.89869,0 1.74861,0.111468 2.54976,0.334405 0.80116,0.215968 1.62322,0.560814 2.46618,1.034538 0,0 -0.47025,2.340768 -0.47025,2.340768 0,0 -0.15675,0 -0.15675,0 -0.22991,-0.229905 -0.46329,-0.442386 -0.70014,-0.637442 -0.22991,-0.202031 -0.57824,-0.421477 -1.04499,-0.658339 -0.38316,-0.202031 -0.83947,-0.369229 -1.36893,-0.501594 -0.52946,-0.139343 -1.11465,-0.209015 -1.75558,-0.209015 -0.97532,0 -1.87052,0.205513 -2.68561,0.61654 -0.81509,0.404062 -1.5222,0.971839 -2.12133,1.703331 -0.58519,0.710592 -1.04499,1.574448 -1.37938,2.591567 -0.3344,1.017123 -0.5016,2.100426 -0.5016,3.249911 0,1.435118 0.37271,2.553254 1.11814,3.354409 0.74543,0.794191 1.82176,1.191287 3.22901,1.191287 0.66183,0 1.28882,-0.07316 1.88098,-0.219468 0.59913,-0.153249 1.14252,-0.34483 1.63018,-0.574742 0.45283,-0.215968 0.86037,-0.442382 1.22263,-0.679241 0.36227,-0.236874 0.67228,-0.456322 0.93004,-0.658343 0,0 0.1463,0 0.1463,0 0,0 -0.49114,2.4035 -0.49114,2.4035 -0.73149,0.36923 -1.57445,0.703626 -2.52887,1.003188 -0.94746,0.292593 -1.95762,0.438891 -3.03047,0.438894 0,0 0,0 0,0"
       style="font-style:italic;font-variant:normal;font-weight:normal;font-stretch:normal;font-size:4.58611107px;line-height:1.25;font-family:Verdana;-inkscape-font-specification:'Verdana, Italic';font-variant-ligatures:normal;font-variant-caps:normal;font-variant-numeric:normal;font-feature-settings:normal;text-align:start;letter-spacing:0px;word-spacing:0px;writing-mode:lr-tb;text-anchor:start;fill:#000000;fill-opacity:1;stroke:none;stroke-width:1.23469281" />
    <path
       id="path5014"
       d="m 352.19343,18.744738 c 0,0 -0.94049,4.065002 -1.88098,8.130004 -0.94048,4.065002 -1.88097,8.130004 -1.88097,8.130004 0,0 -1.96458,0 -1.96458,0 0,0 0.94049,-4.065002 1.88098,-8.130004 0.94049,-4.065002 1.88098,-8.130004 1.88098,-8.130004 0,0 1.96457,0 1.96457,0"
       style="font-style:italic;font-variant:normal;font-weight:normal;font-stretch:normal;font-size:4.58611107px;line-height:1.25;font-family:Verdana;-inkscape-font-specification:'Verdana, Italic';font-variant-ligatures:normal;font-variant-caps:normal;font-variant-numeric:normal;font-feature-settings:normal;text-align:start;letter-spacing:0px;word-spacing:0px;writing-mode:lr-tb;text-anchor:start;fill:#000000;fill-opacity:1;stroke:none;stroke-width:1.23469281" />
    <path
       id="path5405"
       transform="matrix(0.26458333,0,0,0.26458333,10.63961,-60.574957)"
       d="m 1322.7461,358.27148 v -8.875 c -1.4482,2.1591 -3.2001,3.84545 -5.2539,5.05664 -2.0538,1.2112 -4.3434,1.81641 -6.8711,1.81641 -3.2386,0 -5.7417,-0.97343 -7.5059,-2.92187 -0.9546,-1.0544 -1.601,-2.4033 -2.039,-3.95118 h -0.3125 v 11.14258 c 2.4295,1.24277 5.2854,1.93164 8.6718,1.93164 4.0023,0 7.5043,-0.77659 10.5059,-2.33008 0.9935,-0.52291 1.889,-1.21353 2.8047,-1.86914 z"
       style="font-style:italic;font-variant:normal;font-weight:normal;font-stretch:normal;font-size:4.58611107px;line-height:1.25;font-family:Verdana;-inkscape-font-specification:'Verdana, Italic';font-variant-ligatures:normal;font-variant-caps:normal;font-variant-numeric:normal;font-feature-settings:normal;text-align:start;letter-spacing:0px;word-spacing:0px;writing-mode:lr-tb;text-anchor:start;fill:#000000;fill-opacity:1;stroke:none;stroke-width:4.6665554" />
    <path
       id="path5016"
       transform="matrix(0.26458333,0,0,0.26458333,10.63961,-60.574957)"
       d="m 1318.2031,315.9043 c -3.7652,0 -7.2398,0.80399 -10.4258,2.41015 -3.1596,1.60616 -5.8321,3.75181 -8.0175,6.4375 -2.2645,2.79103 -4.0037,5.97766 -5.2149,9.5586 -1.1848,3.58093 -1.7773,7.34536 -1.7773,11.29492 0,5.26609 1.4621,9.40068 4.3847,12.40234 1.0431,1.0524 2.2817,1.85109 3.6114,2.53125 v -11.14258 h 0.3125 c -0.3715,-1.31248 -0.6055,-2.75459 -0.6055,-4.42187 0,-3.00166 0.381,-5.89843 1.1445,-8.68945 0.7636,-2.79104 1.8555,-5.22655 3.2774,-7.30664 1.4745,-2.13276 3.2264,-3.80442 5.2539,-5.01563 2.0274,-1.23753 4.319,-1.85742 6.873,-1.85742 3.2124,0 5.6988,0.94795 7.4629,2.84375 1.7642,1.89578 2.6465,4.68679 2.6465,8.37305 0,3.08066 -0.3809,6.00289 -1.1445,8.76757 -0.7373,2.7647 -1.8165,5.20021 -3.2383,7.30664 v 8.875 c 1.8507,-1.32511 3.6022,-2.82028 5.1348,-4.6875 2.2117,-2.6857 3.9216,-5.84492 5.1328,-9.47851 1.2112,-3.63359 1.8183,-7.42544 1.8183,-11.375 0,-5.42406 -1.5022,-9.58413 -4.5039,-12.48047 -3.0017,-2.89635 -7.0432,-4.3457 -12.125,-4.3457 z"
       style="font-style:italic;font-variant:normal;font-weight:normal;font-stretch:normal;font-size:4.58611107px;line-height:1.25;font-family:Verdana;-inkscape-font-specification:'Verdana, Italic';font-variant-ligatures:normal;font-variant-caps:normal;font-variant-numeric:normal;font-feature-settings:normal;text-align:start;letter-spacing:0px;word-spacing:0px;writing-mode:lr-tb;text-anchor:start;fill:#000000;fill-opacity:1;stroke:none;stroke-width:4.6665554" />
    <path
       id="path5018"
       d="m 370.39711,35.265994 c -0.73845,0 -1.39331,-0.08708 -1.96457,-0.261234 -0.56429,-0.174156 -1.05892,-0.449337 -1.48389,-0.825542 -0.41103,-0.362261 -0.728,-0.818573 -0.95093,-1.368934 -0.22294,-0.550358 -0.33441,-1.191283 -0.33441,-1.922775 0,-1.093754 0.17068,-2.114359 0.51204,-3.061816 0.34137,-0.947454 0.82554,-1.77996 1.45253,-2.497518 0.6061,-0.696657 1.35501,-1.247018 2.24673,-1.651083 0.89173,-0.411027 1.85312,-0.616541 2.88417,-0.616541 0.68272,0 1.32364,0.09405 1.92277,0.28214 0.60609,0.188093 1.13904,0.411024 1.59883,0.668792 0,0 -0.42843,2.121328 -0.42843,2.121328 0,0 -0.11494,0 -0.11494,0 -0.13934,-0.125406 -0.31351,-0.271703 -0.5225,-0.43889 -0.20899,-0.167187 -0.45631,-0.323935 -0.74194,-0.470244 -0.28562,-0.153281 -0.6026,-0.278687 -0.95094,-0.376218 -0.34833,-0.104499 -0.74542,-0.156749 -1.19128,-0.156749 -1.35152,0 -2.45572,0.57126 -3.31261,1.713779 -0.84993,1.142519 -1.27489,2.532351 -1.27489,4.169497 0,0.982289 0.2508,1.738163 0.75239,2.267624 0.50857,0.529461 1.22961,0.794192 2.16313,0.794192 0.43889,0 0.87779,-0.0627 1.31668,-0.188109 0.4389,-0.125406 0.81161,-0.261249 1.11814,-0.40753 0.34136,-0.160219 0.65834,-0.330899 0.95094,-0.512042 0.29259,-0.181125 0.50507,-0.316968 0.63744,-0.407531 0,0 0.11494,0 0.11494,0 0,0 -0.41799,2.142225 -0.41799,2.142225 -0.60609,0.271687 -1.24701,0.50855 -1.92277,0.71059 -0.67576,0.195062 -1.36197,0.292593 -2.05863,0.292593 0,0 -10e-6,-4e-6 -10e-6,-4e-6"
       style="font-style:italic;font-variant:normal;font-weight:normal;font-stretch:normal;font-size:4.58611107px;line-height:1.25;font-family:Verdana;-inkscape-font-specification:'Verdana, Italic';font-variant-ligatures:normal;font-variant-caps:normal;font-variant-numeric:normal;font-feature-settings:normal;text-align:start;letter-spacing:0px;word-spacing:0px;writing-mode:lr-tb;text-anchor:start;fill:#000000;fill-opacity:1;stroke:none;stroke-width:1.23469281" />
    <path
       id="path5020"
       d="m 387.22142,35.004746 c 0,0 -2.38258,0 -2.38258,0 0,0 -3.7306,-5.130888 -3.7306,-5.130888 0,0 -1.69288,1.36893 -1.69288,1.36893 0,0 -0.85689,3.761958 -0.85689,3.761958 0,0 -1.98547,0 -1.98547,0 0,0 0.94049,-4.065002 1.88098,-8.130004 0.94048,-4.065002 1.88097,-8.130004 1.88097,-8.130004 0,0 1.98547,0 1.98547,0 0,0 -0.60609,2.612469 -1.21219,5.224937 -0.60609,2.612469 -1.21218,5.224938 -1.21218,5.224938 0,0 6.84467,-5.86238 6.84467,-5.86238 0,0 2.58112,0 2.58112,0 0,0 -6.65657,5.517535 -6.65657,5.517535 0,0 4.55615,6.154978 4.55615,6.154978"
       style="font-style:italic;font-variant:normal;font-weight:normal;font-stretch:normal;font-size:4.58611107px;line-height:1.25;font-family:Verdana;-inkscape-font-specification:'Verdana, Italic';font-variant-ligatures:normal;font-variant-caps:normal;font-variant-numeric:normal;font-feature-settings:normal;text-align:start;letter-spacing:0px;word-spacing:0px;writing-mode:lr-tb;text-anchor:start;fill:#000000;fill-opacity:1;stroke:none;stroke-width:1.23469281" />
  </g>
</svg>
